HIERARCHY
ROOT Hips
{
 OFFSET 0.000000 0.000000 0.000000
 CHANNELS 6 Xposition Yposition Zposition Yrotation Xrotation Zrotation
 JOINT Chest
 {
  OFFSET 0.000000 10.080317 -0.001081
  CHANNELS 3 Yrotation Xrotation Zrotation
  JOINT Chest2
  {
   OFFSET 0.000000 11.096852 0.001963
   CHANNELS 3 Yrotation Xrotation Zrotation
   JOINT Chest3
   {
    OFFSET 0.000000 10.026525 0.000000
    CHANNELS 3 Yrotation Xrotation Zrotation
    JOINT Chest4
    {
     OFFSET 0.000000 10.026525 0.000000
     CHANNELS 3 Yrotation Xrotation Zrotation
     JOINT Neck
     {
      OFFSET 0.000000 14.108171 0.000000
      CHANNELS 3 Yrotation Xrotation Zrotation
      JOINT Head
      {
       OFFSET 0.000000 9.333493 0.004668
       CHANNELS 3 Yrotation Xrotation Zrotation
       End Site
       {
        OFFSET 0.000000 17.851786 0.002438
       }
      }
     }
     JOINT RightCollar
     {
      OFFSET -3.071622 7.873185 0.000000
      CHANNELS 3 Yrotation Xrotation Zrotation
      JOINT RightShoulder
      {
       OFFSET -14.378659 0.000000 0.000000
       CHANNELS 3 Yrotation Xrotation Zrotation
       JOINT RightElbow
       {
        OFFSET -30.778728 0.000000 0.000000
        CHANNELS 3 Yrotation Xrotation Zrotation
        JOINT RightWrist
        {
         OFFSET -25.164217 0.000000 0.000000
         CHANNELS 3 Yrotation Xrotation Zrotation
         End Site
         {
          OFFSET -18.796788 0.000000 0.000000
         }
        }
       }
      }
     }
     JOINT LeftCollar
     {
      OFFSET 3.071622 7.873185 0.000000
      CHANNELS 3 Yrotation Xrotation Zrotation
      JOINT LeftShoulder
      {
       OFFSET 14.378659 0.000000 0.000000
       CHANNELS 3 Yrotation Xrotation Zrotation
       JOINT LeftElbow
       {
        OFFSET 30.778728 0.000000 0.000000
        CHANNELS 3 Yrotation Xrotation Zrotation
        JOINT LeftWrist
        {
         OFFSET 25.164217 0.000000 0.000000
         CHANNELS 3 Yrotation Xrotation Zrotation
         End Site
         {
          OFFSET 18.796788 0.000000 0.000000
         }
        }
       }
      }
     }
    }
   }
  }
 }
 JOINT RightHip
 {
  OFFSET -8.194923 0.005295 0.000540
  CHANNELS 3 Yrotation Xrotation Zrotation
  JOINT RightKnee
  {
   OFFSET 0.000000 -42.473320 -0.000511
   CHANNELS 3 Yrotation Xrotation Zrotation
   JOINT RightAnkle
   {
    OFFSET 0.000000 -41.474259 -0.000865
    CHANNELS 3 Yrotation Xrotation Zrotation
    JOINT RightToe
    {
     OFFSET 0.000000 -7.354994 16.712725
     CHANNELS 3 Yrotation Xrotation Zrotation
     End Site
     {
      OFFSET 0.000000 -1.553903 6.764158
     }
    }
   }
  }
 }
 JOINT LeftHip
 {
  OFFSET 8.194923 0.005295 0.000540
  CHANNELS 3 Yrotation Xrotation Zrotation
  JOINT LeftKnee
  {
   OFFSET 0.000000 -42.473320 -0.000511
   CHANNELS 3 Yrotation Xrotation Zrotation
   JOINT LeftAnkle
   {
    OFFSET 0.000000 -41.474259 -0.000865
    CHANNELS 3 Yrotation Xrotation Zrotation
    JOINT LeftToe
    {
     OFFSET 0.000000 -7.354994 16.712725
     CHANNELS 3 Yrotation Xrotation Zrotation
     End Site
     {
      OFFSET 0.000000 -1.553903 6.764158
     }
    }
   }
  }
 }
}
MOTION
Frames: 14
Frame Time: 0.016667
0.000000 91.111157 0.000000 0.000000 -5.826342 0.000000 0.000000 11.116423 0.000000 0.000000 -5.290081 0.000000 0.000000 0.000000 0.000000 0.000000 0.000000 0.000000 0.000000 12.665069 0.000000 0.000000 0.575450 0.000000 0.000000 0.000000 0.000000 0.000000 0.000000 0.000000 2.337306 0.000000 0.000000 -2.337306 0.000000 0.000000 0.000000 0.000000 0.000000 0.000000 0.000000 0.000000 -2.337306 0.000000 0.000000 2.337306 0.000000 0.000000 0.000000 8.578828 0.000000 0.000000 1.905768 0.000000 0.000000 -4.658254 0.000000 0.000000 0.000000 0.000000 0.000000 8.578828 0.000000 0.000000 1.905768 0.000000 0.000000 -4.658254 0.000000 0.000000 0.000000 0.000000
-60.613590 92.671748 46.010266 -2.770895 -5.694360 -0.240202 0.035278 2.729702 -0.403567 -0.015687 1.216231 -0.210314 -0.015687 1.216231 -0.210314 -0.011346 0.912179 -0.157699 -3.166477 18.647075 1.793923 -6.391317 -1.390257 4.317276 -7.003545 -0.774028 9.626618 1.813241 0.950255 72.148120 14.816987 11.409022 11.559289 -1.623834 2.625792 -7.467032 -6.499828 -0.266157 -5.523780 -4.820619 -5.456283 -73.903403 -9.990238 18.243174 -13.435952 3.611973 1.776815 12.471275 -6.042195 5.339014 -2.653585 1.793970 6.410035 -1.514234 -15.613867 -5.081845 3.644913 0.022894 0.039957 0.376037 -0.671965 8.450308 2.452761 -5.262629 4.313409 -0.179250 -2.272249 -7.389665 -0.761788 -0.027334 0.259768 0.034378
-60.525142 92.656361 46.037130 -2.878731 -5.821756 -0.234617 0.031547 2.760260 -0.388694 -0.016755 1.228278 -0.203598 -0.016755 1.228278 -0.203598 -0.012157 0.921215 -0.152659 -3.186355 18.675973 1.793962 -6.426210 -1.335372 4.321976 -7.014729 -0.713724 9.661582 1.717010 0.887543 72.061371 14.907922 11.423058 11.601047 -1.603012 2.652739 -7.485540 -6.536219 -0.228006 -5.554615 -4.860969 -5.507299 -73.841914 -10.126203 18.366472 -13.560525 3.639932 1.813074 12.434705 -5.966481 5.260659 -2.687247 1.793621 6.810226 -1.544798 -15.652102 -5.250096 3.648493 0.005834 0.034939 0.388447 -0.656709 8.630431 2.387981 -5.189831 4.293528 -0.186265 -2.258867 -7.501048 -0.721232 -0.017645 0.266140 0.046645
-60.434730 92.644084 46.068569 -2.973154 -5.952175 -0.224704 0.023179 2.790511 -0.382059 -0.021183 1.238637 -0.194129 -0.021183 1.238637 -0.194129 -0.015493 0.928985 -0.145548 -3.204456 18.705071 1.785898 -6.455220 -1.280799 4.311233 -7.009502 -0.644166 9.685012 1.596634 0.826911 71.978243 15.015128 11.462012 11.661420 -1.570367 2.692759 -7.549255 -6.565009 -0.202112 -5.597380 -4.905732 -5.539639 -73.769710 -10.219443 18.452256 -13.640209 3.664725 1.847746 12.408552 -5.971659 5.160163 -2.727742 1.838064 7.254297 -1.573892 -15.705030 -5.419301 3.647580 -0.003985 0.015917 0.402328 -0.617971 8.802704 2.329384 -5.168818 4.294313 -0.202772 -2.210024 -7.659067 -0.687189 -0.007344 0.307486 0.061791
-60.362547 92.633802 46.091122 -3.065622 -6.052432 -0.225127 0.012689 2.825647 -0.364441 -0.028165 1.251680 -0.182439 -0.028165 1.251680 -0.182439 -0.020750 0.938768 -0.136766 -3.213401 18.711965 1.768048 -6.465503 -1.268686 4.280978 -6.995862 -0.624426 9.687196 1.513484 0.786929 71.928589 15.092830 11.456865 11.698265 -1.531973 2.705263 -7.671302 -6.570709 -0.203397 -5.637769 -4.944633 -5.594847 -73.714740 -10.264991 18.521656 -13.690126 3.678580 1.867818 12.396094 -5.980280 4.985131 -2.689133 1.907635 7.777545 -1.690473 -15.819021 -5.589801 3.677858 -0.003031 -0.013252 0.418310 -0.581368 8.910825 2.301061 -5.183532 4.347526 -0.242632 -2.136565 -7.827301 -0.642519 -0.000210 0.339998 0.065892
-60.299667 92.629215 46.109650 -3.146618 -6.134442 -0.226875 0.011739 2.853017 -0.351306 -0.030771 1.263341 -0.173165 -0.030771 1.263341 -0.173165 -0.022719 0.947514 -0.129805 -3.221958 18.720906 1.758750 -6.477716 -1.252202 4.266139 -6.978821 -0.604822 9.714114 1.478869 0.759042 71.871282 15.147707 11.392991 11.699565 -1.473846 2.673800 -7.778889 -6.600176 -0.212956 -5.658492 -4.945445 -5.629888 -73.659869 -10.305135 18.545805 -13.710376 3.703450 1.898285 12.384789 -5.984819 4.775055 -2.649816 1.911343 8.329624 -1.795226 -15.870987 -5.748418 3.693765 -0.003189 -0.060283 0.433203 -0.593066 8.992082 2.264164 -5.169580 4.406253 -0.264580 -2.063643 -7.965072 -0.604699 0.006676 0.349933 0.063011
-60.246163 92.629055 46.128881 -3.204937 -6.204840 -0.228794 0.010632 2.883859 -0.342217 -0.031435 1.276599 -0.165451 -0.031435 1.276599 -0.165451 -0.023230 0.957458 -0.124018 -3.215298 18.730584 1.755055 -6.463801 -1.234945 4.256644 -6.957999 -0.594191 9.753166 1.457901 0.739408 71.807727 15.199850 11.319513 11.696475 -1.421623 2.664846 -7.902613 -6.614049 -0.230402 -5.682248 -4.943620 -5.657264 -73.595642 -10.309790 18.534968 -13.722388 3.704526 1.921034 12.403139 -5.956214 4.583768 -2.614920 1.889270 8.831926 -1.863236 -15.974341 -5.877175 3.695793 -0.005752 -0.108928 0.433905 -0.624465 9.037271 2.221331 -5.130700 4.507470 -0.277744 -2.025776 -8.084570 -0.565710 0.012098 0.332267 0.057706
-60.209194 92.633155 46.152098 -3.240939 -6.277384 -0.239441 0.002898 2.909574 -0.324503 -0.033855 1.288956 -0.158147 -0.033855 1.288956 -0.158147 -0.025057 0.966726 -0.118534 -3.209461 18.736478 1.748885 -6.450805 -1.224822 4.243112 -6.956319 -0.553991 9.761605 1.461550 0.706574 71.785203 15.241370 11.249764 11.669904 -1.354305 2.656525 -8.023937 -6.635180 -0.228826 -5.704770 -4.932633 -5.686794 -73.531037 -10.318905 18.512964 -13.733308 3.715481 1.912518 12.433699 -5.918942 4.452917 -2.584727 1.763424 9.232934 -1.899314 -16.017473 -5.961098 3.678190 -0.010493 -0.157690 0.417371 -0.676503 9.095250 2.198983 -5.082186 4.586189 -0.291447 -2.005139 -8.157745 -0.527497 0.020853 0.288584 0.045877
-60.178469 92.637746 46.187865 -3.249718 -6.350913 -0.252699 -0.012418 2.934759 -0.312525 -0.039271 1.300011 -0.153033 -0.039271 1.300011 -0.153033 -0.029126 0.975018 -0.114686 -3.201181 18.737644 1.742010 -6.433359 -1.223673 4.227796 -6.941192 -0.518394 9.771549 1.437783 0.687337 71.764233 15.240881 11.178454 11.650440 -1.287144 2.647742 -8.141848 -6.651666 -0.211408 -5.710965 -4.906520 -5.719525 -73.465447 -10.327745 18.518714 -13.752514 3.713042 1.897063 12.450692 -5.929320 4.390806 -2.584964 1.681008 9.521959 -1.885616 -16.075395 -6.009917 3.647615 -0.022825 -0.197877 0.388158 -0.704306 9.176909 2.182936 -5.056793 4.627892 -0.294314 -2.002315 -8.206106 -0.488130 0.030707 0.241298 0.030936
-60.168191 92.640494 46.226454 -3.260283 -6.408752 -0.279920 -0.024261 2.959325 -0.299228 -0.044123 1.311247 -0.151376 -0.044123 1.311247 -0.151376 -0.032766 0.983447 -0.113432 -3.187482 18.734583 1.736341 -6.406594 -1.230622 4.213204 -6.922962 -0.504929 9.782256 1.419281 0.674197 71.735060 15.248744 11.173160 11.676442 -1.228359 2.621332 -8.242907 -6.646013 -0.216997 -5.715492 -4.894245 -5.747763 -73.384166 -10.319781 18.520597 -13.748203 3.727965 1.899046 12.464064 -5.941457 4.349916 -2.547195 1.598546 9.747983 -1.895508 -16.155113 -6.037264 3.622729 -0.023305 -0.225032 0.355598 -0.711104 9.256862 2.199147 -5.071893 4.646899 -0.297074 -1.971333 -8.254934 -0.465765 0.035888 0.205494 0.019776
-60.164054 92.641039 46.271877 -3.276401 -6.433803 -0.301445 -0.023469 2.983274 -0.292525 -0.043067 1.321089 -0.151212 -0.043067 1.321089 -0.151212 -0.031972 0.990827 -0.113311 -3.181130 18.728978 1.732467 -6.394005 -1.241692 4.204410 -6.916467 -0.508142 9.785898 1.418085 0.666098 71.723718 15.279678 11.185222 11.697909 -1.216017 2.618833 -8.318856 -6.639218 -0.241007 -5.723439 -4.909246 -5.765509 -73.304063 -10.297326 18.514385 -13.733439 3.721952 1.927146 12.462217 -5.939190 4.315127 -2.511238 1.551796 9.910501 -1.913428 -16.237284 -6.048875 3.618995 -0.028738 -0.237746 0.314633 -0.704797 9.324837 2.223218 -5.049235 4.643226 -0.295193 -1.989626 -8.330813 -0.474347 0.040615 0.197203 0.028247
-60.170623 92.642609 46.322759 -3.276581 -6.424804 -0.321534 -0.018190 2.992374 -0.289764 -0.039672 1.324126 -0.151902 -0.039672 1.324126 -0.151902 -0.029424 0.993105 -0.113835 -3.169579 18.724362 1.730648 -6.372494 -1.251117 4.197653 -6.921844 -0.527297 9.787328 1.452966 0.675455 71.719856 15.292090 11.178382 11.703371 -1.204313 2.636161 -8.365585 -6.636749 -0.267260 -5.723840 -4.910519 -5.786416 -73.237639 -10.253607 18.509336 -13.710326 3.716992 1.933862 12.479855 -5.965843 4.296265 -2.496692 1.541020 9.985722 -1.891645 -16.308792 -6.039857 3.609373 -0.033216 -0.239692 0.262902 -0.674632 9.365950 2.261056 -5.011365 4.628232 -0.295418 -2.053351 -8.418192 -0.512685 0.045319 0.201728 0.055978
-60.187989 92.648835 46.372902 -3.248845 -6.382737 -0.339706 -0.013592 2.985842 -0.286298 -0.037033 1.321644 -0.153761 -0.037033 1.321644 -0.153761 -0.027441 0.991242 -0.115235 -3.162442 18.727966 1.730429 -6.359151 -1.244903 4.194747 -6.902455 -0.538075 9.778496 1.454703 0.683487 71.710539 15.312732 11.186111 11.729464 -1.209876 2.638850 -8.408447 -6.640921 -0.282136 -5.718958 -4.895628 -5.799405 -73.186376 -10.221514 18.490823 -13.674808 3.727196 1.936608 12.489567 -5.995673 4.300275 -2.498950 1.538032 9.956936 -1.841730 -16.333554 -5.994894 3.590808 -0.031711 -0.236415 0.205813 -0.604502 9.363190 2.307503 -5.001291 4.616672 -0.286937 -2.151307 -8.485433 -0.558675 0.046351 0.192322 0.076956
-60.205903 92.658051 46.420207 -3.191387 -6.321332 -0.361487 -0.012930 2.970759 -0.288801 -0.035560 1.316013 -0.157571 -0.035560 1.316013 -0.157571 -0.026330 0.987019 -0.118096 -3.163049 18.734625 1.731570 -6.360279 -1.232436 4.196632 -6.894127 -0.550351 9.786672 1.443872 0.699107 71.705072 15.328776 11.205553 11.749068 -1.216658 2.663976 -8.433809 -6.655120 -0.303480 -5.700734 -4.858188 -5.805421 -73.146207 -10.163874 18.495442 -13.627261 3.719013 1.937211 12.491600 -6.007757 4.325016 -2.513805 1.471744 9.854758 -1.755049 -16.366290 -5.918095 3.566121 -0.037695 -0.233213 0.142390 -0.538244 9.327898 2.355802 -4.997385 4.618195 -0.264817 -2.264581 -8.538306 -0.618045 0.050104 0.171131 0.096166
